<?xml version="1.0" encoding="UTF-8"?>
<!-- Generated by Pixelmator Pro 3.4.1 -->
<svg width="826" height="383" viewBox="0 0 826 383" xmlns="http://www.w3.org/2000/svg">
    <path id="Path" fill="#000000" stroke="none" d="M 434.180542 274.259216 C 434.180542 277.834564 434.130524 281.448853 434.750854 284.922302 C 434.970856 286.156708 435.301056 287.357147 435.681091 288.576538 C 435.681091 288.576538 435.811218 288.947083 435.921204 289.233704 C 437.141785 292.345642 439.552612 294.934265 442.833679 296.404327 C 446.505127 298.051178 450.716614 298.361786 454.648132 297.88739 C 458.059326 297.473969 461.47052 296.247559 463.86145 293.715851 C 465.191803 292.31366 466.132202 290.548981 466.662445 288.673431 C 466.662445 288.673431 466.892426 287.727661 467.052643 286.927704 C 467.822845 283.07074 468.24292 279.051971 468.253082 275.197021 L 468.253082 208.957428 L 486.549561 208.957428 C 486.549561 230.641144 486.579651 252.32486 486.549561 274.008545 C 486.539612 276.88681 486.459686 279.772064 486.199432 282.634308 C 485.749268 287.602814 484.778992 292.625275 482.498108 297.136383 C 481.937927 298.230957 481.31778 299.286591 480.627502 300.302246 C 480.577484 300.372162 480.45752 300.537964 480.427429 300.587891 C 476.185852 306.387329 469.673523 310.425049 462.530884 312.390472 C 457.278961 313.838593 451.736908 314.261047 446.295105 313.785645 C 438.342224 313.09256 430.479156 310.353149 424.46701 304.400909 C 421.145874 301.112183 418.574829 297.120422 417.324371 292.581329 C 415.91391 287.477997 415.813873 282.070038 415.753876 276.86084 C 415.743927 275.922058 415.733948 274.983276 415.733948 274.045532 L 415.733948 208.957428 L 434.180542 208.957428 C 434.180542 230.725037 434.160614 252.491638 434.180542 274.259216 Z M 683.061157 206.872147 C 689.453552 206.893112 695.875793 208.370193 701.217773 211.795715 C 706.509705 215.186295 710.491272 220.505371 712.762024 226.0112 C 713.76239 228.43103 714.512634 230.961716 715.042908 233.532379 L 715.472961 235.616653 L 698.446838 239.534531 C 697.53656 234.979492 696.556091 230.248657 693.104858 226.535507 C 691.204163 224.487183 688.623169 223.117981 685.882324 222.549698 C 680.390259 221.4142 674.187988 222.601639 670.526672 226.799164 C 668.23584 229.432724 667.365356 233.074966 667.725647 236.567413 C 668.005676 239.236923 669.136169 241.789597 671.206787 243.708084 C 672.237244 244.657852 673.407593 245.443817 674.618042 246.121933 C 674.648132 246.137924 674.808105 246.223801 674.808105 246.223801 C 677.739319 247.778778 681.020386 248.698578 684.231689 249.721237 C 684.261597 249.731232 684.731873 249.883041 684.771729 249.894012 C 691.274109 251.909393 697.856567 254.226395 703.798767 257.680847 C 707.300049 259.714233 710.291199 262.654358 712.471863 265.970032 C 716.053223 271.428925 717.493774 278.20108 717.123535 284.602722 C 716.753479 291.016357 714.502686 297.3591 710.391235 302.31665 C 705.939575 307.670654 699.507202 311.204041 692.624634 312.712067 C 689.583679 313.378204 686.462402 313.672821 683.33136 313.658813 C 673.427734 313.616882 663.434082 310.585815 656.211304 303.677856 C 651.889832 299.552216 648.788696 294.219208 647.088074 288.445709 C 646.768066 287.382111 646.507813 286.300537 646.277832 285.214966 L 645.867737 283.185608 L 663.274048 278.597595 C 664.804504 283.946594 666.455078 289.441437 670.606628 293.57605 C 672.277344 295.241852 674.328064 296.515198 676.588867 297.286194 C 680.370178 298.581482 684.571655 298.736298 688.403137 297.886414 C 692.534729 296.969604 696.375977 294.47287 698.186768 290.293335 C 700.147461 285.766205 699.727173 280.047668 696.916199 276.441406 C 694.755432 273.671021 691.464233 271.95224 688.233154 270.601013 C 681.710693 267.871552 674.658081 266.575256 668.095703 263.624115 C 666.875366 263.071838 665.674927 262.465637 664.484436 261.83844 C 664.454346 261.822449 664.274414 261.723572 664.254272 261.712616 C 664.244324 261.707611 664.134338 261.648682 664.114197 261.637695 C 659.502563 258.995178 655.501099 255.248047 652.950195 250.227585 C 649.048767 242.558594 649.01886 232.924164 652.170044 225.305115 C 654.910889 218.708694 660.262817 213.361664 666.77533 210.295685 C 671.737061 207.959732 677.289124 206.907104 682.74115 206.872147 C 682.851135 206.872147 682.961121 206.87114 683.061157 206.872147 Z M 354.001434 311.881134 L 335.694763 311.881134 L 335.694763 208.659821 C 345.508301 208.658829 355.311859 208.655823 365.125488 208.658829 C 371.197601 208.664825 377.339935 208.604889 383.192047 210.222778 C 384.442505 210.57132 385.682983 210.985794 386.91333 211.433212 C 386.91333 211.433212 387.21344 211.544052 387.443604 211.634949 C 393.595825 214.079758 398.717621 218.92543 401.568665 224.852692 C 404.299713 230.536301 405.049988 237.168625 403.929657 243.28064 C 402.979309 248.487854 400.448334 253.366501 396.646942 257.117615 C 393.805878 259.917969 390.364594 262.07016 386.693329 263.67804 L 386.623383 263.705994 L 406.960663 311.880157 L 387.253479 311.880157 L 368.666718 267.316284 L 354.001434 267.316284 L 354.001434 311.881134 Z M 523.143005 295.541473 L 564.948242 295.541473 L 564.948242 311.878174 L 504.836334 311.87915 L 504.836334 208.657822 L 523.143005 208.657822 L 523.143005 295.541473 Z M 628.961609 250.084778 L 628.961609 266.28064 L 595.039063 266.28064 L 595.039063 295.690277 L 641.155884 295.68927 L 641.155884 311.877167 L 576.732422 311.878174 L 576.732422 208.655823 L 638.925171 208.655823 L 638.925171 224.405289 L 595.039063 224.406281 L 595.039063 250.084778 L 628.961609 250.084778 Z M 354.001434 223.65126 L 354.001434 252.020264 C 358.823181 252.020264 363.654938 252.082184 368.466644 251.994293 C 370.327362 251.960327 372.188049 251.900421 374.028778 251.667709 C 375.969513 251.424042 377.840118 250.896729 379.62085 249.89801 C 382.211609 248.55777 384.092377 246.079987 385.022797 243.200745 C 385.062653 243.096878 385.092743 242.981033 385.092743 242.981033 C 386.91333 236.982864 385.532959 229.800247 380.401001 226.338776 C 379.430725 225.678619 378.340302 225.153305 377.18988 224.874664 C 372.648193 223.779099 367.886444 223.657257 363.234772 223.65126 C 360.153656 223.649261 357.08252 223.65126 354.001434 223.65126 Z"/>
    <path id="path1" fill="#000000" stroke="none" d="M 576.55249 138.699112 C 576.54248 138.957748 576.54248 139.215424 576.532349 139.474091 C 576.302368 148.364487 574.98175 157.295822 571.590698 165.678894 C 568.669556 172.902481 564.10791 179.562775 557.575439 184.143814 C 553.623962 186.923157 549.072327 188.81868 544.320618 189.765472 C 534.156921 191.790833 523.362976 190.227875 514.529907 183.71637 C 508.067596 178.953583 503.495819 171.907776 500.734833 164.701172 C 498.534058 158.964645 497.303528 152.89856 496.703308 146.936356 C 495.632996 136.266266 496.243164 125.288574 499.094208 115.232727 C 502.105255 104.601593 508.057434 94.598633 517.430969 88.876099 C 525.553833 83.919556 535.717468 82.655212 544.910828 84.624664 C 553.573975 86.479248 561.326843 91.695435 566.568787 99.108765 C 572.180786 107.030426 574.931763 116.836639 575.982117 126.034607 C 576.302368 128.835983 576.492493 131.674271 576.55249 134.480621 C 576.55249 134.480621 576.572388 134.538528 576.572388 134.538528 L 576.572388 138.699112 L 576.55249 138.699112 Z M 438.502228 144.190933 L 438.502228 188.754776 L 420.215454 188.755783 L 420.215454 85.533447 C 430.028992 85.533447 439.832611 85.531494 449.646332 85.533447 C 455.288208 85.539459 461.000427 85.471558 466.472351 86.776855 C 468.192902 87.187286 469.893524 87.729584 471.5242 88.337799 C 471.544128 88.343811 471.644165 88.380737 471.664276 88.388733 C 478.416718 90.978363 483.948608 96.407257 486.729706 103.155457 C 489.150513 109.029816 489.650696 115.719086 488.070221 121.965912 C 486.609741 127.723419 483.108459 132.837738 478.316681 136.457031 C 476.155945 138.091888 473.774994 139.432129 471.294037 140.521729 L 471.164093 140.580627 L 491.481445 188.754776 L 471.79422 188.754776 L 453.187439 144.189941 C 450.676575 144.189941 448.16571 144.190933 445.654816 144.190933 L 438.502228 144.190933 Z M 368.176605 85.533447 C 373.67865 85.544464 379.240631 85.735199 384.59256 87.18631 C 388.713989 88.303833 392.58551 90.384125 395.596558 93.44812 C 399.207825 97.120331 401.718719 101.770294 402.849182 106.87561 C 403.939636 111.803192 403.739563 116.961456 402.198944 121.726257 C 401.388702 124.207977 400.21817 126.552948 398.677765 128.625244 C 397.757294 129.855652 397.277252 130.298065 396.777069 130.807404 C 396.486908 131.100021 396.196777 131.38266 395.886719 131.655304 C 394.496155 132.891678 392.895569 133.886368 391.204926 134.687332 L 391.175018 134.703323 C 395.586609 136.802582 399.538025 139.992416 402.028961 144.171967 C 404.859894 148.901779 405.780334 154.619308 405.610168 160.182068 C 405.56015 162.104568 405.360077 164.019073 404.990021 165.919601 C 404.199677 170.043198 402.599091 174.166824 399.958099 177.744156 C 398.637695 179.525833 397.107056 181.118759 395.346466 182.497955 C 395.326538 182.510925 395.306427 182.524902 395.296448 182.537903 C 395.246429 182.570862 394.966248 182.780579 394.726318 182.958344 C 391.735199 185.108536 388.313843 186.634552 384.722687 187.507416 C 380.621185 188.505112 376.369659 188.752777 372.147949 188.754776 L 335.694763 188.755783 L 335.694763 85.534454 C 346.518738 85.534454 357.352631 85.527466 368.176605 85.533447 Z M 642.346313 85.530487 L 658.552246 85.530487 L 660.212769 88.870117 L 632.312805 125.529297 L 666.195007 188.751785 L 645.987671 188.752777 L 620.718567 140.730438 L 609.154358 155.463211 L 609.154358 188.752777 L 590.867615 188.753784 L 590.867615 85.531494 L 609.154358 85.531494 L 609.154358 129.914551 C 620.218384 115.119843 631.282349 100.325165 642.346313 85.530487 Z M 737.100891 101.279907 L 693.214844 101.279907 L 693.214844 126.959412 L 727.147278 126.959412 L 727.147278 143.155273 L 693.214844 143.156281 L 693.214844 172.564911 L 739.351807 172.564911 L 739.351807 188.751785 L 674.908142 188.752777 L 674.908142 85.531494 L 737.100891 85.530487 L 737.100891 101.279907 Z M 825.933289 188.751785 L 811.137878 188.751785 L 771.123352 112.942688 C 770.883179 112.481293 770.633118 112.019897 770.393005 111.558502 L 770.363098 111.51355 C 770.423096 114.481689 770.423096 117.458832 770.423096 120.429932 L 770.423096 188.751785 L 753.326721 188.751785 L 753.326721 85.52948 L 776.005005 85.52948 L 808.286804 147.867142 C 808.306763 147.913086 808.326904 147.958008 808.35675 148.003952 C 808.556824 148.422394 808.756897 148.842865 808.95697 149.26532 C 808.866943 146.857452 808.816895 144.430618 808.816895 142.008774 L 808.816895 85.52948 L 825.933289 85.52948 L 825.933289 188.751785 Z M 536.357727 99.045837 C 531.92627 99.059814 527.524658 100.586823 524.203308 103.835602 C 520.582092 107.389954 518.521362 112.3125 517.250793 116.856598 C 515.370239 123.596802 514.839966 130.659607 514.839966 137.664444 C 514.830017 141.928879 515.059998 146.213303 515.680298 150.415817 L 515.690247 150.534653 C 516.680664 157.133026 518.441284 163.761414 522.732849 168.963623 C 524.713501 171.365463 527.284546 173.29895 530.285645 174.320618 C 535.867554 176.223145 542.480103 175.163513 546.851563 171.912781 C 549.832764 169.698654 551.993469 166.499832 553.473938 163.286026 C 555.124512 159.712692 556.124939 155.919617 556.805237 151.970764 L 556.825195 151.851929 C 556.925232 151.286682 557.01532 150.718399 557.095398 150.150146 L 557.115356 150.027313 C 558.145813 142.786758 558.225708 135.428375 557.705566 128.196808 C 557.285522 122.360413 556.295105 116.362244 553.734192 111.101105 C 552.213501 107.97818 550.20282 105.046997 547.461792 102.86087 C 544.370605 100.398071 540.44928 99.059814 536.437866 99.045837 C 536.417725 99.045837 536.387817 99.045837 536.357727 99.045837 Z M 354.021454 142.275436 L 354.021454 173.763336 C 358.503052 173.763336 362.974701 173.765335 367.456299 173.763336 C 370.34729 173.760361 373.248413 173.780334 376.089478 173.379852 C 378.010101 173.107208 379.870941 172.47403 381.591461 171.417404 L 381.611389 171.404434 C 385.322906 169.00856 386.953369 164.164886 387.153442 160.107162 C 387.323639 156.457932 386.68335 152.706818 384.762543 149.430099 C 383.482208 147.258926 381.60144 145.381378 379.28067 144.416641 C 377.089844 143.505814 374.708893 143.114334 372.328156 142.814728 C 369.026886 142.398285 365.685638 142.28241 362.354462 142.275436 C 359.583435 142.274445 356.802429 142.275436 354.021454 142.275436 Z M 438.502228 100.524933 L 438.502228 128.894882 C 443.394043 128.894882 448.295837 128.961823 453.157562 128.865921 C 456.42865 128.80101 459.779877 128.766052 462.740906 127.478714 C 463.181122 127.287979 463.611359 127.070267 464.031433 126.835571 L 464.141418 126.774658 C 467.302734 125.137787 469.353485 121.752197 470.043579 118.187866 C 470.89389 113.730682 469.893524 108.949921 467.772827 105.992767 C 466.362335 104.017365 464.301636 102.513306 461.940613 101.803223 L 461.920685 101.797272 C 457.309052 100.655731 452.517273 100.532898 447.745636 100.524933 C 444.664429 100.523926 441.583221 100.524933 438.502228 100.524933 Z M 354.021454 100.526886 L 354.021454 127.268005 C 358.603088 127.268005 363.184753 127.355881 367.746368 127.215073 C 371.547729 127.097229 375.43924 126.901489 378.780487 125.083862 C 380.350983 124.22998 381.711426 123.074493 382.741882 121.391663 C 383.66214 119.891632 384.232483 118.219818 384.542542 116.443115 C 384.542542 116.443115 384.602539 116.109589 384.642578 115.795959 C 384.89267 113.924408 384.872742 112.001923 384.542542 110.179321 C 384.142395 108.00415 383.222137 105.913879 381.641479 104.292999 C 380.260925 102.880829 378.450287 101.917084 376.549591 101.3638 C 376.549591 101.3638 375.549225 101.17804 374.658875 101.072205 C 371.347656 100.682709 368.036499 100.532898 364.685272 100.525879 C 361.124023 100.523926 357.572754 100.525879 354.021454 100.526886 Z"/>
    <path id="path2" fill="#000000" fill-rule="evenodd" stroke="none" d="M 0.022585 296.220581 L 124.127724 382.973389 L 124.127724 301.772339 L 23.821188 231.652832 L 29.833443 223.083008 L 90.515495 265.498657 L 90.515495 184.297592 L 0.152613 121.124023 C 0.112559 179.488876 0.072603 237.854721 0.022585 296.220581 Z M 134.611511 301.758362 L 134.611511 382.960419 L 224.944397 319.819824 L 224.944397 238.623734 C 194.833435 259.668274 164.722473 280.713806 134.611511 301.758362 Z M 168.203812 137.310898 L 168.203812 178.851715 L 235.428299 225.838425 L 235.428299 312.494354 L 292.168854 272.832092 L 292.168854 144.630356 L 231.476852 187.052994 L 225.47467 178.483185 L 258.546661 155.358368 L 258.546661 109.013824 L 258.556641 109.013824 L 258.556641 74.156311 C 228.435699 95.207825 198.324738 116.259369 168.203812 137.310898 Z M 66.856873 295.949951 L 60.84473 304.520752 L 23.821188 278.642517 L 29.833443 270.071686 C 42.177868 278.697449 54.51244 287.324188 66.856873 295.949951 Z M 168.203812 231.284317 L 104.890732 275.548553 L 129.359604 292.656219 L 221.05304 228.567841 L 168.203812 191.624054 L 168.203812 231.284317 Z M 100.989319 184.297592 L 100.989319 265.498657 L 157.729996 225.838425 L 157.729996 144.637344 C 138.813034 157.857086 119.906158 171.07785 100.989319 184.297592 Z M 66.856873 201.976532 L 60.84473 210.546356 L 23.821188 184.66713 L 29.833443 176.096298 C 42.177868 184.723038 54.51244 193.349808 66.856873 201.976532 Z M 4.074063 111.089111 L 95.747375 175.188477 L 153.828568 134.588455 L 62.135139 70.49707 C 42.778084 84.028442 23.421043 97.558777 4.074063 111.089111 Z M 234.908096 137.67244 L 197.874573 163.565674 L 191.862427 154.995819 L 228.895828 129.102631 C 230.896561 131.958908 232.897278 134.816162 234.908096 137.67244 Z M 269.030487 148.031921 L 288.267456 134.587463 L 269.030487 121.143982 L 269.030487 148.031921 Z M 71.268539 64.110382 L 162.961868 128.201782 L 254.655212 64.107422 L 162.961868 0.008636 C 132.400742 21.375946 101.829659 42.743286 71.268539 64.110382 Z"/>
</svg>
