<svg xmlns="http://www.w3.org/2000/svg" viewBox="0 0 605.42 150"><defs><style>.cls-1{fill:#011f46;}.cls-2{fill:#fff;}</style></defs><g id="Layer_2" data-name="Layer 2"><g id="Layer_2-2" data-name="Layer 2"><g id="Night_White_Fill_-_Horizontal" data-name="Night &amp; White Fill - Horizontal"><circle class="cls-1" cx="75" cy="75" r="75"/><path class="cls-2" d="M75,6.7A68.3,68.3,0,1,1,6.7,75,68.38,68.38,0,0,1,75,6.7M75,4a71,71,0,1,0,71,71A71,71,0,0,0,75,4Z"/><path class="cls-2" d="M29.69,119.89c25.91,26.23,67.63,24.31,91,0-1.41-.61-2.82-1.18-4.23-1.86a.69.69,0,0,0-.89.19A54.67,54.67,0,0,1,105.47,126c-13.71,8.19-28.42,10.25-43.9,6.94a55.77,55.77,0,0,1-27.09-14.57.66.66,0,0,0-.88-.16Z"/><path class="cls-2" d="M96.58,63a5.4,5.4,0,0,0-.13-.7c-1.31,2.3-4.28,4.06-6.06,3.77l3.09-2.72-2.83-1.37v.55A3.21,3.21,0,0,1,88,65.84a3.4,3.4,0,0,1-3.69-1.4c-.71-.94-1.38-1-2.24-.19-.42.4-.82,1.11-1.47.86a.27.27,0,0,1-.19-.17.39.39,0,0,1,0-.21,6.46,6.46,0,0,1,1-1.71,6.94,6.94,0,0,1,3-2.09c.28-.09.56-.17.84-.23,1.89-.37,3.83-.52,5.77-.81,1.18-.19,2.36-.37,3.51-.61a.66.66,0,0,0,.5-.41c.1-.71.1-1.45.16-2.31-1.68-.32-3.33-.76-5-.94-3.41-.4-6.68-.16-9.3,2.51a1.31,1.31,0,0,1-1.79,0,1.29,1.29,0,0,1-.23-1.7,2.65,2.65,0,0,1,.68-.81,11,11,0,0,1,1.76-1.18,13.52,13.52,0,0,1,8.8-1.18,15.41,15.41,0,0,1,5.32,2.09l.19-.08c-.11-.44-.27-.89-.42-1.31a4,4,0,0,0-.74-.89,9.7,9.7,0,0,1-3-5.37A4.59,4.59,0,0,0,90,45a17.49,17.49,0,0,0-5.42-3.67,7.48,7.48,0,0,0-6.53.08c-.78.36-1.54.83-2.36,1.17a.78.78,0,0,1-.6,0c-.68-.34-1.34-.73-2-1.07a7.51,7.51,0,0,0-7.21,0,33.23,33.23,0,0,0-4.29,2.8,5.93,5.93,0,0,0-2.36,4,6.5,6.5,0,0,1-1.42,3c-.55.68-1.15,1.34-1.76,2a2.71,2.71,0,0,0-.76,2l.56-.32a14.84,14.84,0,0,1,12.24-1.18,8.47,8.47,0,0,1,3.53,2.15,1.42,1.42,0,0,1,0,2.07,1.4,1.4,0,0,1-2-.21,7.48,7.48,0,0,0-3.54-2c-3.51-1-6.92-.26-10.3.71a.51.51,0,0,0-.24.31c-.15,2.1.11,2.44,2.21,2.73h.1c2,.23,4.06.42,6.08.68a8,8,0,0,1,6.21,3.56,4.34,4.34,0,0,1,.37.71c.13.28-.12.41-.38.42s-.49-.2-.73-.39-.46-.38-.68-.58c-.78-.76-1.28-.73-2,.08a5.13,5.13,0,0,1-1.47,1.31,3.31,3.31,0,0,1-5-3v-.5l-2.81,1.36L60.62,66c-2.52-.42-4.88-1.18-6.14-3.77a22,22,0,0,0-.36,2.3,14.67,14.67,0,0,0,1.28,7.34,19.37,19.37,0,0,1,1.52,7.29c0,1.78.16,3.51.24,5.37a7.4,7.4,0,0,0,2.22,5.22,34,34,0,0,0,8,6,16.32,16.32,0,0,0,10.09,1.91,23.28,23.28,0,0,0,13.87-7.7A27.6,27.6,0,0,0,93,87.57a2.16,2.16,0,0,0,.29-.92c.23-1.94.44-3.91.57-5.87.14-1.18.11-2.36.19-3.54a21.38,21.38,0,0,1,1.7-6.06A14.21,14.21,0,0,0,96.58,63ZM70.29,75a3.21,3.21,0,0,1,2.49-1.94l.71.23a2,2,0,0,1,.55.32,2.39,2.39,0,0,0,2.85,0,2.37,2.37,0,0,1,2.23-.32A2.32,2.32,0,0,1,80.59,75a.8.8,0,0,1-.13.92.84.84,0,0,1-.89.26,3.27,3.27,0,0,0-2.94.39,2.31,2.31,0,0,1-2.33,0,3.11,3.11,0,0,0-2.83-.39,1,1,0,0,1-1-.24A.94.94,0,0,1,70.29,75Zm10.3,11.11a3.65,3.65,0,0,1-2.83,2.6A12.49,12.49,0,0,1,73,88.69,3.66,3.66,0,0,1,70.42,86a1.24,1.24,0,0,1,0-.47,17.55,17.55,0,0,0,10.25,0A2.29,2.29,0,0,1,80.59,86.15ZM82.76,83a21.47,21.47,0,0,0-6.34.4,7.85,7.85,0,0,1-3.09-.21A10.42,10.42,0,0,0,69.48,83a9.59,9.59,0,0,1-2.15-.08,4.6,4.6,0,0,1-.82-.26c2-.76,4-1.49,6-2.28a2.21,2.21,0,0,1,1.91,0,2,2,0,0,0,2.15,0,2.39,2.39,0,0,1,2.15,0c1.29.52,2.54,1,3.83,1.49a15.75,15.75,0,0,0,2,.63l0,.21A6.38,6.38,0,0,1,82.76,83Z"/><path class="cls-2" d="M36.58,117a18.3,18.3,0,0,1,8.87-1.18,37.19,37.19,0,0,0,13.16-1.12c4.67-1.19,7.54-4.27,8.92-8.81.43-1.4.73-2.85,1.1-4.31a14.68,14.68,0,0,0,6.86,1.59,15.07,15.07,0,0,0,7-1.65,18.29,18.29,0,0,0,1.19,5.08,11.82,11.82,0,0,0,8.79,8.1,37.64,37.64,0,0,0,13,1.1,15.49,15.49,0,0,1,6.73.53c.38.12.73.31,1.21.52-10.53,9.31-22.7,14.58-36.69,15C61.45,132.36,48.17,127,36.58,117Zm13.56,1.46a6.29,6.29,0,0,0,3.48,1.35c2.63.18,5.27.27,7.9.35a23,23,0,0,1,7.77,1.1,4.5,4.5,0,0,0,1.74.3c.9,0,1.19-.51.9-1.36a2.54,2.54,0,0,0-1.78-1.5,12.48,12.48,0,0,0-5.74-.65,53,53,0,0,1-10.08.08A8.17,8.17,0,0,0,50.14,118.46Zm50.56,0c0-.06.11-.24.1-.3a10.77,10.77,0,0,0-1.67-.22c-1,0-2,.3-3,.31a78,78,0,0,1-9.79-.26,11.47,11.47,0,0,0-5.56.66,4.38,4.38,0,0,0-1.61,1.14,1.41,1.41,0,0,0-.17,1.26c.12.27.69.37,1.08.48a1.45,1.45,0,0,0,.67-.09l2.48-.74a24.84,24.84,0,0,1,5.89-.58c2.73-.12,5.58-.3,8.3-.48A5.75,5.75,0,0,0,100.7,118.5Z"/><path class="cls-2" d="M97.45,39.92c-.73-.56-1.45-1.13-2.2-1.67A27.39,27.39,0,0,0,89,34.44a15.43,15.43,0,0,0-12,.1,4.44,4.44,0,0,1-3.57,0,15.57,15.57,0,0,0-14.66,1.19,36.71,36.71,0,0,0-5.51,4.11l-.37.3a11.35,11.35,0,0,1,2.2-3.21,25.08,25.08,0,0,1,5.68-4.3,37.46,37.46,0,0,1,6.81-3.21A19.19,19.19,0,0,0,74,25.52c1.13-1,1.26-1.05,2.39,0a20.85,20.85,0,0,0,7.11,4.15,35.46,35.46,0,0,1,11.08,6.46,12,12,0,0,1,2.77,3.43,3.36,3.36,0,0,1,.16.33Z"/><path class="cls-2" d="M54.45,77.57a13.39,13.39,0,0,1-.12,7.4,6.36,6.36,0,0,1-3.44,4,9.29,9.29,0,0,1-2.54.75,10.93,10.93,0,0,1-4.62-.24,7.12,7.12,0,0,1-5.1-7.61,8.32,8.32,0,0,1,2.1-5A5.85,5.85,0,0,1,47,75.28a2.72,2.72,0,0,1,1.47,3.89l-.1-.33a2.52,2.52,0,0,0-3.08-2,4.91,4.91,0,0,0-.55,9.44,6.61,6.61,0,0,0,8.06-3A12.43,12.43,0,0,0,54.4,78C54.41,77.85,54.44,77.71,54.45,77.57Z"/><path class="cls-2" d="M96.12,77.53c.19,1.07.35,2.18.6,3.27a8.08,8.08,0,0,0,1.89,3.57,5.7,5.7,0,0,0,4,2,8.39,8.39,0,0,0,3.34-.35,4.7,4.7,0,0,0,3.17-5.66,4.63,4.63,0,0,0-3.81-3.8,2.56,2.56,0,0,0-3.16,2.19,2.49,2.49,0,0,1,.67-3.2,4.46,4.46,0,0,1,3.71-.74A7,7,0,0,1,111.92,81a8.1,8.1,0,0,1-1.15,5.29,6.92,6.92,0,0,1-5.15,3.14,10.37,10.37,0,0,1-5.35-.56,6.6,6.6,0,0,1-4.35-5.58A16.13,16.13,0,0,1,96.12,77.53Z"/><path class="cls-2" d="M74.11,39.07c-.86-.31-1.66-.67-2.5-.88a9.15,9.15,0,0,0-5.88.51A23.1,23.1,0,0,0,61,41.45a11.08,11.08,0,0,0-3.68,4.82A16.11,16.11,0,0,1,55,50.71l-.29.34s0,0-.1.06a1.2,1.2,0,0,1-.06-.24c-.22-4.26.74-8.15,3.72-11.33a12.43,12.43,0,0,1,8.65-4.11,9.23,9.23,0,0,1,5.78,1.75A3.94,3.94,0,0,1,74.11,39.07Z"/><path class="cls-2" d="M46.46,50.76a4.49,4.49,0,0,1-.55-2.35,31,31,0,0,1,1-6.06A19.16,19.16,0,0,0,47.18,40c0-.13-.1-.28-.15-.42a1.27,1.27,0,0,0-.37.25,9.36,9.36,0,0,0-1.95,6.32c.08,1.53.27,3.06.39,4.59,0,.48,0,1,0,1.46a.54.54,0,0,1-.12-.09c-2.64-4.45-3-9-.52-13.64a9.14,9.14,0,0,1,3.7-3.72l.44-.23c.16.87.34,1.68.45,2.5.22,1.67.42,3.34.59,5a6.56,6.56,0,0,1-.55,3.39C48.27,47.18,47.37,48.93,46.46,50.76Z"/><path class="cls-2" d="M105.57,52.22c.08-1.39.12-2.8.26-4.19a12,12,0,0,0-1.73-8,2.74,2.74,0,0,0-.3-.43,1.71,1.71,0,0,0-.35-.21c-.06.12-.2.25-.19.36.07.71.15,1.42.27,2.12.4,2.14.83,4.27,1.21,6.41a4,4,0,0,1-.34,2.22h-.1a18.38,18.38,0,0,1-3.32-7,12.29,12.29,0,0,1,0-4.36c.26-1.49.45-3,.67-4.56a6.16,6.16,0,0,1,.63.32,11,11,0,0,1,5.1,7.16,13.72,13.72,0,0,1-1.67,10.14l-.07.1Z"/><path class="cls-2" d="M76.48,39.13a3.52,3.52,0,0,1,1-1.51,8.65,8.65,0,0,1,4.79-2.08,10,10,0,0,1,7.56,2.13,14.52,14.52,0,0,1,6.13,10.64c.09.84.09,1.69.13,2.54a1.21,1.21,0,0,1,0,.23,5.67,5.67,0,0,1-1.37-1.83c-.44-.93-.88-1.86-1.24-2.81a10.52,10.52,0,0,0-4.83-5.7,41.68,41.68,0,0,0-4.37-2.22,8.28,8.28,0,0,0-6.85.22l-.71.34A.75.75,0,0,1,76.48,39.13Z"/><path class="cls-2" d="M97.42,55.9a7.65,7.65,0,0,1,3.23,2.2A9.37,9.37,0,0,1,103,64.71a20.15,20.15,0,0,1-1.72,7.87c-.87,2-1.75,4-2.62,5.93-.06.13-.13.25-.22.43a11.87,11.87,0,0,1-.34-6.19,10.11,10.11,0,0,1,.62-1.5,19,19,0,0,0,1.5-6.94,13.57,13.57,0,0,0-2.59-8.13Z"/><path class="cls-2" d="M53.22,55.82A15,15,0,0,0,51,60.24a14.12,14.12,0,0,0,0,8.34c.45,1.46,1,2.89,1.46,4.36a10,10,0,0,1-.35,6l-.51-1.22C50.51,75,49.3,72.25,48.3,69.43a12.29,12.29,0,0,1-.14-8.27A8.61,8.61,0,0,1,53.22,55.82Z"/><path class="cls-2" d="M50.93,35.38c-1.38-5.22,2-12.12,7.83-12.93-.12.65-.22,1.27-.33,1.89-.26,1.41-.5,2.82-.79,4.22a6.7,6.7,0,0,1-1.7,3.27c-1.07,1.14-2.19,2.23-3.3,3.34l-.15,0a8.24,8.24,0,0,1,.25-1.5,29.58,29.58,0,0,1,2.54-5.33A11.3,11.3,0,0,0,56,26.64c.06-.15,0-.35,0-.52a1.86,1.86,0,0,0-.47.16,9,9,0,0,0-3.59,5.13c-.31,1.17-.59,2.36-.88,3.53Z"/><path class="cls-2" d="M99.42,35.35c-.4-1.55-.71-3.13-1.23-4.64a10,10,0,0,0-3.38-4.45,1.55,1.55,0,0,0-.54-.16c0,.19-.1.41,0,.57a12,12,0,0,0,.83,1.73,26,26,0,0,1,2.58,5.5,7.52,7.52,0,0,1,.19,1.17,1.27,1.27,0,0,1-.27-.19l-3-2.92a7.37,7.37,0,0,1-2.1-4.19c-.25-1.62-.56-3.23-.84-4.84,0-.14,0-.29-.05-.51.39.09.75.15,1.08.26a9.51,9.51,0,0,1,6,5.55,11.29,11.29,0,0,1,.79,6.9,1.72,1.72,0,0,1-.08.28Z"/><path class="cls-2" d="M60.89,102.25a13.59,13.59,0,0,0-2.5-4.39c-.88-1.19-1.76-2.38-2.57-3.6a6.05,6.05,0,0,1-.58-6.05c.07-.15.16-.3.28-.53.12.37.19.65.28.92a11.44,11.44,0,0,0,2.77,4.52c.67.67,1.36,1.33,2,2a4.55,4.55,0,0,1,1.2,4.71c-.24.81-.53,1.6-.79,2.4Z"/><path class="cls-2" d="M95.14,87.65a6,6,0,0,1,.19,5.58,25.79,25.79,0,0,1-1.82,2.84c-.44.65-.94,1.27-1.41,1.9a15.26,15.26,0,0,0-2.4,4.28,9.44,9.44,0,0,1-1-2.84A4.36,4.36,0,0,1,90,95.27c.59-.6,1.19-1.21,1.8-1.8A11.86,11.86,0,0,0,95,88.09C95,88,95.07,87.88,95.14,87.65Z"/><path class="cls-2" d="M89.15,29.36c-4.56-1.64-6.49-5.28-7.59-9.64a4.84,4.84,0,0,1,2,.15,9.06,9.06,0,0,1,6.11,5.4,9.08,9.08,0,0,1,.84,3.59c-.19-.47-.36-.95-.57-1.41a9.2,9.2,0,0,0-4.8-4.88,1.28,1.28,0,0,0-.37-.14,1.11,1.11,0,0,0-.36,0c0,.12,0,.27,0,.35a13.15,13.15,0,0,0,1,1.32,20.07,20.07,0,0,1,3.17,4.07C88.85,28.58,89,29,89.15,29.36Z"/><path class="cls-2" d="M59.82,28.85c.18-5.21,4.5-9.48,8.95-9.18-1.07,4.35-3,8-7.63,9.65a8.69,8.69,0,0,1,.75-1.53C63,26.4,64.1,25.07,65.2,23.7a5.75,5.75,0,0,0,.6-.86c.07-.11,0-.29,0-.44a1.13,1.13,0,0,0-.45,0,8.94,8.94,0,0,0-3.78,2.91A11.14,11.14,0,0,0,60,28.37Z"/><path class="cls-2" d="M47,72.89a8.34,8.34,0,0,1-4.42-7.47c.11-2.87,2-5.64,4.17-6.26C44.55,63.79,45,68.34,47,72.89Z"/><path class="cls-2" d="M103.56,73A18.32,18.32,0,0,0,105.31,66a14.11,14.11,0,0,0-1.53-6.91A5.83,5.83,0,0,1,106.35,61a7.73,7.73,0,0,1-.22,9.81A8.28,8.28,0,0,1,103.56,73Z"/><path class="cls-2" d="M103.46,56.29A9.62,9.62,0,0,1,98.83,53a3.45,3.45,0,0,1-.64-2.4,17.34,17.34,0,0,0-1-6.81A9.29,9.29,0,0,1,96.78,42c.33.36.67.72,1,1.09a10,10,0,0,1,2.51,5.07c.13.89.12,1.79.27,2.66a9.73,9.73,0,0,0,2.73,5.24Z"/><path class="cls-2" d="M60.65,110.58a4.92,4.92,0,0,1,.66-3.87c.55-.9,1.1-1.79,1.69-2.67a8.57,8.57,0,0,0,1.5-4,.75.75,0,0,1,.07-.22,2.34,2.34,0,0,1,1,1.85,9.74,9.74,0,0,1-2.06,6.89,6.38,6.38,0,0,1-2.66,2A.7.7,0,0,1,60.65,110.58Z"/><path class="cls-2" d="M86.26,99.84a20.52,20.52,0,0,0,1,3c.64,1.27,1.47,2.44,2.24,3.65a5.14,5.14,0,0,1,.83,3.88c0,.08,0,.16-.09.29a4.7,4.7,0,0,1-.45-.17A7.59,7.59,0,0,1,86,106.13a9.89,9.89,0,0,1-.59-4.61A2.83,2.83,0,0,1,86.26,99.84Z"/><path class="cls-2" d="M53.91,41.94c-.42,1.56-.86,3.05-1.23,4.55a11.76,11.76,0,0,0-.26,3.88,3.89,3.89,0,0,1-.94,3,10.47,10.47,0,0,1-4,2.9c-.11.05-.24.08-.42.14.36-.41.69-.74,1-1.1a8.85,8.85,0,0,0,2.14-5.93,6,6,0,0,1,.9-3.44c.78-1.26,1.67-2.46,2.52-3.68A1.57,1.57,0,0,1,53.91,41.94Z"/><path class="cls-2" d="M58.85,107.93a6.85,6.85,0,0,1-2.47-8.8C59,101.56,59.3,104.61,58.85,107.93Z"/><path class="cls-2" d="M91.88,107.91c-.76-3.27.42-7.45,2.45-8.73C96.16,101.79,94.45,106.35,91.88,107.91Z"/><path class="cls-2" d="M50.21,80.08a3.83,3.83,0,0,1-2.89,4.44,2.93,2.93,0,0,1-2.83-.93A2.66,2.66,0,0,1,44,80.75,2.41,2.41,0,0,1,46,79.14c-.08.16-.13.28-.19.38a1.63,1.63,0,0,0,.13,2.1,1.91,1.91,0,0,0,2.24.44A4.79,4.79,0,0,0,50.21,80.08Z"/><path class="cls-2" d="M100.34,79.81c.54.58,1,1.09,1.47,1.58a2,2,0,0,0,2.26.42,1.63,1.63,0,0,0,.83-2.36l-.27-.52a2.13,2.13,0,0,1,1.57.83,2.73,2.73,0,0,1-2,4.45,3.09,3.09,0,0,1-3.06-1.49A4.82,4.82,0,0,1,100.34,79.81Z"/><path class="cls-2" d="M95.15,108.36a16.49,16.49,0,0,0,2.64,5l-.06.11-2-.34-2.28-.43c-.55-.11-.69-.25-.68-.83a3.05,3.05,0,0,1,.86-2.18C94.11,109.27,94.61,108.86,95.15,108.36Z"/><path class="cls-2" d="M55.53,108.38c1,.92,2.07,1.76,2.34,3.19.14.74,0,1.07-.72,1.23-1.35.28-2.72.5-4.12.69A19.88,19.88,0,0,0,55.53,108.38Z"/><path class="cls-1" d="M237.11,138.59c-.39-1.67-1.84-6.22-4.32-13.57q-2,5.51-3,8.51c-.68,2-1.19,3.68-1.58,5.06h-2.9a54.33,54.33,0,0,0-1.77-5.83c-.84-2.39-2.58-7-5.23-14a9.2,9.2,0,0,0-1.06-2.16,2.93,2.93,0,0,0-1.32-.91v-.16c1.58.1,2.8.1,4.19.1s3-.07,4.26-.1v.16c-.88.29-1.23.65-1.23,1.39a5.14,5.14,0,0,0,.35,1.64c1.78,5.19,3,8.71,4.23,12.09q2-5.85,2.51-7.35l1-3c-.12-.48-.32-1-.48-1.48a9.67,9.67,0,0,0-1.06-2.26,3.52,3.52,0,0,0-1.39-1v-.16c1.71.1,2.74.1,3.9.1,1.39,0,3.06-.07,4.26-.1v.16c-.9.26-1.26.65-1.26,1.39a6.35,6.35,0,0,0,.39,1.8l2.25,7.16c.58,1.84,1.1,3.45,1.58,4.87l1.75-5.29c.54-1.67,1.19-3.64,1.87-5.9a8.89,8.89,0,0,0,.54-2.54,1.41,1.41,0,0,0-1.25-1.49v-.16a37.82,37.82,0,0,0,3.87.1c.87,0,1.9,0,3.44-.1v.16a3.18,3.18,0,0,0-1.35,1,10.44,10.44,0,0,0-1.19,2.45c-2,5.26-3.48,9.26-4.48,12s-1.81,5.19-2.49,7.38Z"/><path class="cls-1" d="M272.67,132.34a57.21,57.21,0,0,0-1.16,6c-2.48-.09-6.29-.13-9.67-.13-1.84,0-3.93.07-5.26.1v-.16c1.55-.52,1.84-1.13,2-3,0-.87.1-2,.1-4V122.7c0-1.94-.07-3.1-.1-4-.16-1.9-.45-2.51-2-3v-.16c1.39,0,3.2.1,5,.1,2.32,0,4.25,0,5.83,0s3.1-.1,4.62-.2c0,.62,0,1.58,0,2.84s.09,2.26.16,2.93l-.16,0a4,4,0,0,0-2-2.36,19.38,19.38,0,0,0-6.68-.48v6.77l3.48-.1a9,9,0,0,0,2.91-.38,2.43,2.43,0,0,0,1.19-1.36h.19a35.84,35.84,0,0,0,0,6.1h-.19a2.29,2.29,0,0,0-1.16-1.36,8.65,8.65,0,0,0-2.94-.42l-3.48-.06v6c0,1.45.68,1.87,2.61,1.87a9.74,9.74,0,0,0,4-.65,6.83,6.83,0,0,0,2.58-2.61Z"/><path class="cls-1" d="M301.85,134.88a13.31,13.31,0,0,0,1.22,2.36,3.06,3.06,0,0,0,1.33.87v.16c-1.13,0-2.58-.1-4.23-.1-1.25,0-2.13,0-2.64,0s-.9,0-1.26.06v-.16c.87-.29,1.19-.65,1.19-1.39a6.58,6.58,0,0,0-.48-2l-.39-1c-.35-.81-.48-1.16-.64-1.55h-9.09c-.1.29-.23.51-.49,1.16a5.75,5.75,0,0,1-.32.8,6.88,6.88,0,0,0-.68,2.46,1.39,1.39,0,0,0,1.23,1.48v.16a34.35,34.35,0,0,0-3.74-.1c-1.16,0-2.55.07-3.42.1v-.16a3.44,3.44,0,0,0,1.45-1.13,15.35,15.35,0,0,0,1.42-2.71q4.31-9.48,5.8-12.89c1-2.29,1.91-4.36,2.65-6.13h2.8c.45,1.22,1.29,3.29,2.49,6.19Zm-10.41-13.73c-1.94,4.74-3.13,7.58-3.52,8.48h7c-.29-.68-.55-1.39-1.32-3.19-.55-1.39-1-2.42-1.29-3.16Z"/><path class="cls-1" d="M318,121.92v11.71c0,1.42.68,1.87,2.51,1.87a9.3,9.3,0,0,0,3.91-.65,7.16,7.16,0,0,0,2.54-2.77l.16.1a52.84,52.84,0,0,0-1.19,6.12c-2.45-.09-5.8-.13-8.93-.13-2,0-4.45.07-5.74.1v-.16c1.55-.52,1.84-1.13,2-3,0-.87.1-2,.1-4V122.7c0-1.94-.07-3.1-.1-4-.16-1.9-.45-2.51-2-3v-.16c1.55.1,2.84.1,4.42.1s2.87,0,4.58-.1v.16c-1.68.49-2,1-2.13,2.52A30.45,30.45,0,0,0,318,121.92Z"/><path class="cls-1" d="M345,137.17a3.56,3.56,0,0,0,1.8.94v.16c-2.09-.1-3.32-.1-4.77-.1s-2.68,0-4.77.1v-.16a3.93,3.93,0,0,0,1.83-.9,3.59,3.59,0,0,0,.49-1.75,34.27,34.27,0,0,0,.13-3.9V118.22h-1a7.78,7.78,0,0,0-4.26,1,6.9,6.9,0,0,0-2.38,3.54l-.16,0c.06-.8.09-2.09.13-3.84a29.07,29.07,0,0,0-.07-3.41c3.32.13,6.55.16,10,.16s6.74,0,10.06-.16a29.07,29.07,0,0,0-.07,3.41c0,1.75.07,3,.13,3.84l-.16,0a6.71,6.71,0,0,0-2.42-3.54,7.54,7.54,0,0,0-4.22-1h-1v13.34a32.93,32.93,0,0,0,.13,3.9A3.67,3.67,0,0,0,345,137.17Z"/><path class="cls-1" d="M384.48,138.11v.16c-1.58-.1-2.87-.1-4.41-.1s-2.94,0-4.58.1v-.16a3.19,3.19,0,0,0,1.61-.87,3.73,3.73,0,0,0,.52-1.68,33.57,33.57,0,0,0,.12-3.67v-3.81H366.81v3.81a32.79,32.79,0,0,0,.13,3.67,4.21,4.21,0,0,0,.49,1.68,3.42,3.42,0,0,0,1.64.87v.16c-1.71-.1-3-.1-4.58-.1s-2.87,0-4.41.1v-.16c1.54-.52,1.83-1.13,2-3,0-.87.1-2,.1-4V122.7c0-1.94-.06-3.1-.1-4-.16-1.9-.45-2.51-2-3v-.16c1.54.1,2.83.1,4.41.1s2.87,0,4.58-.1v.16c-1.68.49-2,1-2.13,2.52a32.79,32.79,0,0,0-.13,3.67v2.84h10.93v-2.84a33.57,33.57,0,0,0-.12-3.67c-.17-1.52-.46-2-2.13-2.52v-.16c1.64.1,3,.1,4.58.1s2.83,0,4.41-.1v.16c-1.54.49-1.84,1.1-2,3,0,.87-.09,2-.09,4v8.41c0,1.94.06,3.1.09,4C382.64,137,382.94,137.59,384.48,138.11Z"/><path class="cls-1" d="M418.66,127.79a5.78,5.78,0,0,1,1.42,3.9,6.38,6.38,0,0,1-2.33,5.1,8.91,8.91,0,0,1-6,1.93,15.48,15.48,0,0,1-7.06-1.64c.06-1.07.09-2.2.09-3.45a21.34,21.34,0,0,0-.12-2.78l.16,0c1.41,3.1,4.22,5.13,7.06,5.13a3.3,3.3,0,0,0,3.61-3.23c0-1.7-1.1-2.77-4.42-4.22-4.42-2-6.06-3.9-6.06-6.87a5.81,5.81,0,0,1,2.16-4.67,8.29,8.29,0,0,1,5.58-1.84A14.21,14.21,0,0,1,419,116.6a43.3,43.3,0,0,0,0,5.81l-.16,0c-1.55-2.87-3.81-4.55-6.23-4.55a2.79,2.79,0,0,0-3,2.81,2.71,2.71,0,0,0,.84,2,14.34,14.34,0,0,0,3.32,1.87A14.94,14.94,0,0,1,418.66,127.79Z"/><path class="cls-1" d="M440.94,137.17a3.56,3.56,0,0,0,1.8.94v.16c-2.09-.1-3.32-.1-4.77-.1s-2.68,0-4.77.1v-.16a4,4,0,0,0,1.84-.9,3.71,3.71,0,0,0,.48-1.75,32,32,0,0,0,.13-3.9V118.22h-1a7.78,7.78,0,0,0-4.26,1,6.9,6.9,0,0,0-2.38,3.54l-.16,0c.06-.8.09-2.09.13-3.84a29.07,29.07,0,0,0-.07-3.41c3.32.13,6.55.16,10,.16s6.74,0,10.06-.16a29.07,29.07,0,0,0-.07,3.41c0,1.75.07,3,.13,3.84l-.16,0a6.71,6.71,0,0,0-2.42-3.54,7.54,7.54,0,0,0-4.22-1h-1v13.34a32.93,32.93,0,0,0,.13,3.9A3.67,3.67,0,0,0,440.94,137.17Z"/><path class="cls-1" d="M476.59,123.31l0,6.09c0,6.06-3.35,9.35-9.54,9.35-6,0-9.32-3.25-9.32-9.06v-7c0-1.94-.06-3.1-.1-4-.16-1.9-.45-2.48-2-3v-.16c1.54.1,2.83.1,4.38.1s2.94,0,4.58-.1v.16c-1.68.49-2,1-2.13,2.39a29.09,29.09,0,0,0-.13,3.51v7.71c0,4,1.68,5.9,5.19,5.9s5.45-2,5.45-6.13l0-7a32.52,32.52,0,0,0-.13-3.74c-.16-1.65-.45-2.19-2.09-2.68v-.16c1.77.1,3,.1,4.25.1h1.52l2.16-.1v.16a2.53,2.53,0,0,0-1.49,1.07,7,7,0,0,0-.48,2.25C476.66,120,476.59,121.28,476.59,123.31Z"/><path class="cls-1" d="M486.07,138.27v-.16c1.55-.52,1.84-1.13,2-3,0-.87.1-2,.1-4V122.7c0-1.94-.07-3.1-.1-4-.16-1.9-.45-2.51-2-3v-.16c1.45.1,2.71.1,3.87.1.55,0,1.06,0,2.32-.07s1.65-.06,2.16-.06c5,0,8.8,1.32,11.42,3.93a10.58,10.58,0,0,1,3,7.68,10.16,10.16,0,0,1-3.61,8.22c-2.38,2-5.67,3-9.86,3-.65,0-1.26,0-2.81-.13s-2-.1-2.58-.1C488.78,138.17,487.59,138.17,486.07,138.27Zm17.73-10.83a9,9,0,0,0-2.22-6.45,9.79,9.79,0,0,0-7.13-2.68,6.54,6.54,0,0,0-1.64.1v15.25c0,1.55.71,2,3.13,2C500.81,135.63,503.8,132.56,503.8,127.44Z"/><path class="cls-1" d="M525.7,138.27c-1.65-.1-3-.1-4.52-.1s-3,0-4.45.1v-.16c1.58-.52,1.9-1.16,2.07-3,0-.87.09-2,.09-4V122.7c0-2-.06-3.13-.09-4-.17-1.84-.49-2.48-2.07-3v-.16c1.45.1,2.87.1,4.45.1s2.87,0,4.52-.1v.16c-1.58.49-1.91,1.13-2.07,3,0,.87-.09,2-.09,4v8.41c0,2,.06,3.13.09,4,.16,1.84.49,2.48,2.07,3Z"/><path class="cls-1" d="M554.49,135.4a12.29,12.29,0,0,1-8.77,3.35,12,12,0,0,1-8.74-3.38,11.35,11.35,0,0,1-3.42-8.45,11.19,11.19,0,0,1,3.52-8.45,12.22,12.22,0,0,1,8.77-3.38,11.91,11.91,0,0,1,8.7,3.38,11.39,11.39,0,0,1,3.45,8.45A11.27,11.27,0,0,1,554.49,135.4ZM551,120.6a6.44,6.44,0,0,0-5.28-2.58,6.33,6.33,0,0,0-5.13,2.42,9.45,9.45,0,0,0-2,6.19,10.41,10.41,0,0,0,2,6.64,6.44,6.44,0,0,0,5.29,2.55,6.29,6.29,0,0,0,5.1-2.42,9.44,9.44,0,0,0,2-6.19A10.27,10.27,0,0,0,551,120.6Z"/><path class="cls-1" d="M580.79,127.79a5.73,5.73,0,0,1,1.42,3.9,6.37,6.37,0,0,1-2.32,5.1,8.91,8.91,0,0,1-6,1.93,15.56,15.56,0,0,1-7.07-1.64c.07-1.07.1-2.2.1-3.45a19.34,19.34,0,0,0-.13-2.78l.16,0c1.42,3.1,4.23,5.13,7.06,5.13,2.1,0,3.62-1.32,3.62-3.23,0-1.7-1.1-2.77-4.42-4.22-4.42-2-6.06-3.9-6.06-6.87a5.81,5.81,0,0,1,2.16-4.67,8.29,8.29,0,0,1,5.58-1.84,14.21,14.21,0,0,1,6.19,1.48,43.3,43.3,0,0,0,0,5.81l-.17,0c-1.54-2.87-3.8-4.55-6.22-4.55a2.78,2.78,0,0,0-3,2.81,2.74,2.74,0,0,0,.83,2,14.57,14.57,0,0,0,3.32,1.87A14.72,14.72,0,0,1,580.79,127.79Z"/><path class="cls-1" d="M332.33,93.8c-11.56,0-21.36-4-29.28-11.78a38.73,38.73,0,0,1-11.9-28.63c0-11.56,4.08-21.14,12.12-28.84S321.32,13,333,13s21.36,4,29.29,11.78a38.69,38.69,0,0,1,11.89,28.62,39.14,39.14,0,0,1-12.33,29A42.88,42.88,0,0,1,332.33,93.8Zm20.81-64.3a27,27,0,0,0-41-.33q-7.92,9.26-7.92,23.45c0,10,2.64,18.28,7.92,24.67a26.87,26.87,0,0,0,40.85.33c5.4-6.28,8-14.1,8-23.45C361.07,44.15,358.43,35.89,353.14,29.5Z"/><path class="cls-1" d="M425.37,92.15c-4.51-.33-9.14-.33-14-.33s-8.92,0-13.43.33V91.6c5.17-1.32,6.27-2.86,6.82-6.83.44-2.2.55-5.39.55-10.68V32.58c0-5.28-.11-8.36-.55-10.56-.55-4-1.65-5.51-6.82-6.83v-.55c4.51.33,8.69.33,13.43.33,1.21,0,2.31-.11,5.94-.22,4.74-.11,6.72-.22,8.92-.22,19.82,0,32,8.14,32,21.69a18.25,18.25,0,0,1-5.39,13.65C447.06,55.71,436.6,59,423.39,59h-5.95V76.3c0,6,.44,9.9,1.22,11.56s3.08,2.86,6.71,3.74Zm-7.93-71V53.07h5.18c9.14,0,15.41-1.88,18.94-5.4C444.2,45,445.41,41.5,445.41,37c0-10.57-7.27-16.19-20.59-16.19C421.85,20.8,419.1,21,417.44,21.13Z"/><path class="cls-1" d="M507.4,92.15c-4.52-.33-9-.33-13.77-.33s-9.35,0-13.65.33V91.6c5.29-1.32,6.39-2.75,7.16-6.72.44-2.2.55-5.39.55-10.79V32.58c0-5.39-.11-8.47-.55-10.67-.77-4-1.87-5.4-7.16-6.72v-.55c4.3.33,8.81.33,13.65.33s9.25,0,13.77-.33v.55c-5.4,1.32-6.61,2.75-7.16,6.72-.44,2.09-.55,5.06-.55,10.67V74.09c0,5.62.11,8.59.55,10.79.55,4,1.76,5.4,7.16,6.72Z"/><path class="cls-1" d="M596.5,81.47c1.54,3.63,2.86,6.17,4,7.38a10.83,10.83,0,0,0,5,2.75v.55c-3.53-.11-7.93-.33-12.78-.33s-8.69,0-12.22.33V91.6c3.53-.88,5-2.09,5-4.62,0-1.21-.33-2.65-1.54-5.73-1.43-4-3.2-8.15-5.29-13H546.18c-.44,1.21-.88,2.31-2.09,5.06s-1.65,3.86-2.09,5.07c-1.65,4.07-2.31,6.38-2.31,8,0,3.08,1.43,4.4,4.95,5.17v.55c-3.52-.11-8.15-.33-11.34-.33s-7.6.22-10.57.33V91.6a10.56,10.56,0,0,0,5.5-3.63,60.48,60.48,0,0,0,5-9.47q18.66-41.79,22.24-50.1c2.42-5.5,4.51-10.57,6.39-15.19h6c1.32,3.85,4,10.46,7.82,19.82Zm-34-52.08-5.4,12.66-8.37,20H576L570.62,49Z"/><path class="cls-1" d="M263.85,66.5c-4.84,13.21-14.09,20-26.86,20-8.7,0-15.64-3-20.81-9s-7.82-14.21-7.82-24.23c0-9.68,2.64-17.61,8-23.78a25.69,25.69,0,0,1,20.14-9.25c11.9,0,21.26,6,26.44,17.92h.55l.67-21.59-1.46-.19A3.22,3.22,0,0,1,260,18.54a6.09,6.09,0,0,1-1.58-.33c-2.65-.81-5.16-2.09-7.82-2.93a47.32,47.32,0,0,0-7.8-1.76,46,46,0,0,0-6.32-.42,41,41,0,0,0-41.17,41.51c0,11.34,3.85,20.7,11.45,28.07s17.06,11,28.29,11A57.47,57.47,0,0,0,264.4,85a78.27,78.27,0,0,1-.33-8.47c.11-3.86.22-7.16.44-9.91Z"/></g></g></g></svg>