{
  "accessors": [
    {
      "bufferView": 2,
      "componentType": 5126,
      "count": 180,
      "max": [
        0.5621820092201233,
        2.173919916152954,
        0.5120009779930115
      ],
      "min": [
        -3.3809099197387695,
        -2.02341890335083,
        9.999999974752427e-07
      ],
      "type": "VEC3"
    },
    {
      "bufferView": 2,
      "byteOffset": 2160,
      "componentType": 5126,
      "count": 180,
      "max": [
        -0.0,
        0.0,
        -1.0
      ],
      "min": [
        -0.0,
        0.0,
        -1.0
      ],
      "type": "VEC3"
    },
    {
      "bufferView": 1,
      "componentType": 5126,
      "count": 180,
      "max": [
        8.951171875,
        10.447265625
      ],
      "min": [
        -11.007811546325684,
        -5.021483898162842
      ],
      "type": "VEC2"
    },
    {
      "bufferView": 0,
      "componentType": 5125,
      "count": 282,
      "type": "SCALAR"
    },
    {
      "bufferView": 2,
      "byteOffset": 4320,
      "componentType": 5126,
      "count": 120,
      "max": [
        -0.9229390025138855,
        1.9174100160598755,
        0.614001989364624
      ],
      "min": [
        -3.7897160053253174,
        -1.767590045928955,
        -0.04999899864196777
      ],
      "type": "VEC3"
    },
    {
      "bufferView": 2,
      "byteOffset": 5760,
      "componentType": 5126,
      "count": 120,
      "max": [
        0.43670278787612915,
        0.4401998817920685,
        -0.8978997468948364
      ],
      "min": [
        -0.4401998817920685,
        -0.4401998817920685,
        -1.0
      ],
      "type": "VEC3"
    },
    {
      "bufferView": 1,
      "byteOffset": 1440,
      "componentType": 5126,
      "count": 120,
      "max": [
        10.947265625,
        6.455078125
      ],
      "min": [
        -7.015625,
        -5.021483898162842
      ],
      "type": "VEC2"
    },
    {
      "bufferView": 0,
      "byteOffset": 1128,
      "componentType": 5125,
      "count": 216,
      "type": "SCALAR"
    },
    {
      "bufferView": 2,
      "byteOffset": 7200,
      "componentType": 5126,
      "count": 42,
      "max": [
        0.05003700032830238,
        0.38401299715042114,
        0.7170010209083557
      ],
      "min": [
        -0.5901820063591003,
        -0.2302660048007965,
        9.999999974752427e-07
      ],
      "type": "VEC3"
    },
    {
      "bufferView": 2,
      "byteOffset": 7704,
      "componentType": 5126,
      "count": 42,
      "max": [
        0.9999998807907104,
        0.9999998807907104,
        1.0
      ],
      "min": [
        -0.0004999999655410647,
        -0.9999998807907104,
        0.0
      ],
      "type": "VEC3"
    },
    {
      "bufferView": 1,
      "byteOffset": 2400,
      "componentType": 5126,
      "count": 42,
      "max": [
        2.962891101837158,
        0.9667969942092896
      ],
      "min": [
        -2.025391101837158,
        -2.527343988418579
      ],
      "type": "VEC2"
    },
    {
      "bufferView": 0,
      "byteOffset": 1992,
      "componentType": 5125,
      "count": 72,
      "type": "SCALAR"
    },
    {
      "bufferView": 2,
      "byteOffset": 8208,
      "componentType": 5126,
      "count": 144,
      "max": [
        -1.5903300046920776,
        1.8161380290985107,
        0.5120009779930115
      ],
      "min": [
        -2.5091090202331543,
        -1.6648609638214111,
        9.999999974752427e-07
      ],
      "type": "VEC3"
    },
    {
      "bufferView": 2,
      "byteOffset": 9936,
      "componentType": 5126,
      "count": 144,
      "max": [
        -0.7068067193031311,
        0.7068067193031311,
        0.0
      ],
      "min": [
        -0.9999998807907104,
        -0.707406759262085,
        0.0
      ],
      "type": "VEC3"
    },
    {
      "bufferView": 1,
      "byteOffset": 2736,
      "componentType": 5126,
      "count": 144,
      "max": [
        1.964843988418579,
        2.855468988418579
      ],
      "min": [
        -1.7753909826278687,
        -4.023437976837158
      ],
      "type": "VEC2"
    },
    {
      "bufferView": 0,
      "byteOffset": 2280,
      "componentType": 5125,
      "count": 216,
      "type": "SCALAR"
    },
    {
      "bufferView": 2,
      "byteOffset": 11664,
      "componentType": 5126,
      "count": 64,
      "max": [
        -1.8834689855575562,
        1.9034030437469482,
        0.7170010209083557
      ],
      "min": [
        -3.3949038982391357,
        -1.7535959482192993,
        0.02600100077688694
      ],
      "type": "VEC3"
    },
    {
      "bufferView": 2,
      "byteOffset": 12432,
      "componentType": 5126,
      "count": 64,
      "max": [
        0.710697591304779,
        0.9999998807907104,
        0.0
      ],
      "min": [
        -0.9999998807907104,
        -0.9999998807907104,
        0.0
      ],
      "type": "VEC3"
    },
    {
      "bufferView": 1,
      "byteOffset": 3888,
      "componentType": 5126,
      "count": 64,
      "max": [
        8.951171875,
        0.9667969942092896
      ],
      "min": [
        -16.99609375,
        0.0
      ],
      "type": "VEC2"
    },
    {
      "bufferView": 0,
      "byteOffset": 3144,
      "componentType": 5125,
      "count": 96,
      "type": "SCALAR"
    },
    {
      "bufferView": 2,
      "byteOffset": 13200,
      "componentType": 5126,
      "count": 4,
      "max": [
        -0.6258900165557861,
        0.38371700048446655,
        1.6900010108947754
      ],
      "min": [
        -0.6261820197105408,
        -0.2302830070257187,
        1.0750010013580322
      ],
      "type": "VEC3"
    },
    {
      "bufferView": 2,
      "byteOffset": 13248,
      "componentType": 5126,
      "count": 4,
      "max": [
        0.9999998807907104,
        0.0004999999655410647,
        0.0
      ],
      "min": [
        0.9999998807907104,
        0.0004999999655410647,
        0.0
      ],
      "type": "VEC3"
    },
    {
      "bufferView": 1,
      "byteOffset": 4400,
      "componentType": 5126,
      "count": 4,
      "max": [
        0.9667969942092896,
        0.9824219942092896
      ],
      "min": [
        0.0,
        0.0
      ],
      "type": "VEC2"
    },
    {
      "bufferView": 0,
      "byteOffset": 3528,
      "componentType": 5125,
      "count": 6,
      "type": "SCALAR"
    },
    {
      "bufferView": 2,
      "byteOffset": 13296,
      "componentType": 5126,
      "count": 9,
      "max": [
        -1.168910026550293,
        0.3424589931964874,
        -0.04999899864196777
      ],
      "min": [
        -1.7011619806289673,
        -0.18979300558567047,
        -0.04999899864196777
      ],
      "type": "VEC3"
    },
    {
      "bufferView": 2,
      "byteOffset": 13404,
      "componentType": 5126,
      "count": 9,
      "max": [
        -0.0,
        -0.0,
        -1.0
      ],
      "min": [
        -0.0,
        -0.0,
        -1.0
      ],
      "type": "VEC3"
    },
    {
      "bufferView": 1,
      "byteOffset": 4432,
      "componentType": 5126,
      "count": 9,
      "max": [
        0.9667969942092896,
        0.9667969942092896
      ],
      "min": [
        0.0,
        0.0
      ],
      "type": "VEC2"
    },
    {
      "bufferView": 0,
      "byteOffset": 3552,
      "componentType": 5125,
      "count": 24,
      "type": "SCALAR"
    },
    {
      "bufferView": 2,
      "byteOffset": 13512,
      "componentType": 5126,
      "count": 76,
      "max": [
        -0.615792989730835,
        2.122992992401123,
        1.741001009941101
      ],
      "min": [
        -3.7897160053253174,
        -1.972491979598999,
        1.0240010023117065
      ],
      "type": "VEC3"
    },
    {
      "bufferView": 2,
      "byteOffset": 14424,
      "componentType": 5126,
      "count": 76,
      "max": [
        0.5376797914505005,
        0.9426075220108032,
        1.0
      ],
      "min": [
        -0.814030647277832,
        -0.9426075220108032,
        -0.5808218717575073
      ],
      "type": "VEC3"
    },
    {
      "bufferView": 1,
      "byteOffset": 4504,
      "componentType": 5126,
      "count": 76,
      "max": [
        1.566406011581421,
        2.234375
      ],
      "min": [
        -0.6289060115814209,
        -0.7304689884185791
      ],
      "type": "VEC2"
    },
    {
      "bufferView": 0,
      "byteOffset": 3648,
      "componentType": 5125,
      "count": 96,
      "type": "SCALAR"
    },
    {
      "bufferView": 2,
      "byteOffset": 15336,
      "componentType": 5126,
      "count": 210,
      "max": [
        -0.5899230241775513,
        2.122992992401123,
        1.741001009941101
      ],
      "min": [
        -3.7897160053253174,
        -1.972491979598999,
        0.5120009779930115
      ],
      "type": "VEC3"
    },
    {
      "bufferView": 2,
      "byteOffset": 17856,
      "componentType": 5126,
      "count": 210,
      "max": [
        0.9999998807907104,
        0.9999998807907104,
        1.0
      ],
      "min": [
        -0.9999998807907104,
        -0.9999998807907104,
        -1.0
      ],
      "type": "VEC3"
    },
    {
      "bufferView": 1,
      "byteOffset": 5112,
      "componentType": 5126,
      "count": 210,
      "max": [
        3.976562023162842,
        0.9667969942092896
      ],
      "min": [
        -1.0136719942092896,
        0.0
      ],
      "type": "VEC2"
    },
    {
      "bufferView": 0,
      "byteOffset": 4032,
      "componentType": 5125,
      "count": 324,
      "type": "SCALAR"
    },
    {
      "bufferView": 2,
      "byteOffset": 20376,
      "componentType": 5126,
      "count": 341,
      "max": [
        -0.5898910164833069,
        2.173919916152954,
        0.5120019912719727
      ],
      "min": [
        -3.3809099197387695,
        -2.02341890335083,
        9.999999974752427e-07
      ],
      "type": "VEC3"
    },
    {
      "bufferView": 2,
      "byteOffset": 24468,
      "componentType": 5126,
      "count": 341,
      "max": [
        0.9999998807907104,
        0.9999998807907104,
        1.0
      ],
      "min": [
        -0.9999998807907104,
        -0.9999998807907104,
        -0.8950375318527222
      ],
      "type": "VEC3"
    },
    {
      "bufferView": 1,
      "byteOffset": 6792,
      "componentType": 5126,
      "count": 341,
      "max": [
        1.246093988418579,
        0.9667969942092896
      ],
      "min": [
        -1.0136719942092896,
        0.0
      ],
      "type": "VEC2"
    },
    {
      "bufferView": 0,
      "byteOffset": 5328,
      "componentType": 5125,
      "count": 525,
      "type": "SCALAR"
    }
  ],
  "asset": {
    "extras": {
      "author": "Garu (https://sketchfab.com/Garu.The.Ninja)",
      "license": "CC-BY-4.0 (http://creativecommons.org/licenses/by/4.0/)",
      "source": "https://sketchfab.com/3d-models/nintendo-64-super-mario-64-peachs-castle-1f-e3750a9043e042f682139091c28e2a90",
      "title": "Nintendo 64 - Super Mario 64 - Peachs Castle 1F"
    },
    "generator": "Sketchfab-15.77.0",
    "version": "2.0"
  },
  "bufferViews": [
    {
      "buffer": 0,
      "byteLength": 7428,
      "name": "floatBufferViews",
      "target": 34963
    },
    {
      "buffer": 0,
      "byteLength": 9520,
      "byteOffset": 7428,
      "byteStride": 8,
      "name": "floatBufferViews",
      "target": 34962
    },
    {
      "buffer": 0,
      "byteLength": 28560,
      "byteOffset": 16948,
      "byteStride": 12,
      "name": "floatBufferViews",
      "target": 34962
    }
  ],
  "buffers": [
    {
      "byteLength": 45508,
      "uri": "scene.bin"
    }
  ],
  "images": [
    {
      "uri": "textures/Shape.081_baseColor.png"
    },
    {
      "uri": "textures/Shape.083_baseColor.png"
    },
    {
      "uri": "textures/Shape.084_baseColor.png"
    },
    {
      "uri": "textures/Shape.091_baseColor.png"
    },
    {
      "uri": "textures/Shape.097_baseColor.png"
    },
    {
      "uri": "textures/Shape.098_baseColor.png"
    },
    {
      "uri": "textures/Shape.164_baseColor.png"
    },
    {
      "uri": "textures/Shape.165_baseColor.png"
    },
    {
      "uri": "textures/Shape.181_baseColor.png"
    }
  ],
  "materials": [
    {
      "doubleSided": true,
      "name": "Shape.081",
      "pbrMetallicRoughness": {
        "baseColorTexture": {
          "index": 0
        },
        "metallicFactor": 0.0
      }
    },
    {
      "doubleSided": true,
      "name": "Shape.081_3C96C6A_c.bmp",
      "pbrMetallicRoughness": {
        "baseColorTexture": {
          "index": 0
        },
        "metallicFactor": 0.0,
        "roughnessFactor": 0.6
      }
    },
    {
      "doubleSided": true,
      "name": "Shape.083",
      "pbrMetallicRoughness": {
        "baseColorTexture": {
          "index": 1
        },
        "metallicFactor": 0.0
      }
    },
    {
      "doubleSided": true,
      "name": "Shape.084",
      "pbrMetallicRoughness": {
        "baseColorTexture": {
          "index": 2
        },
        "metallicFactor": 0.0
      }
    },
    {
      "doubleSided": true,
      "name": "Shape.091",
      "pbrMetallicRoughness": {
        "baseColorTexture": {
          "index": 3
        },
        "metallicFactor": 0.0
      }
    },
    {
      "doubleSided": true,
      "name": "Shape.097",
      "pbrMetallicRoughness": {
        "baseColorTexture": {
          "index": 4
        },
        "metallicFactor": 0.0
      }
    },
    {
      "doubleSided": true,
      "name": "Shape.098",
      "pbrMetallicRoughness": {
        "baseColorTexture": {
          "index": 5
        },
        "metallicFactor": 0.0
      }
    },
    {
      "alphaMode": "BLEND",
      "doubleSided": true,
      "name": "Shape.164",
      "pbrMetallicRoughness": {
        "baseColorTexture": {
          "index": 6
        },
        "metallicFactor": 0.0
      }
    },
    {
      "alphaMode": "BLEND",
      "doubleSided": true,
      "name": "Shape.165",
      "pbrMetallicRoughness": {
        "baseColorTexture": {
          "index": 7
        },
        "metallicFactor": 0.0
      }
    },
    {
      "doubleSided": true,
      "name": "Shape.181",
      "pbrMetallicRoughness": {
        "baseColorTexture": {
          "index": 8
        },
        "metallicFactor": 0.0
      }
    }
  ],
  "meshes": [
    {
      "name": "Object_0",
      "primitives": [
        {
          "attributes": {
            "NORMAL": 1,
            "POSITION": 0,
            "TEXCOORD_0": 2
          },
          "indices": 3,
          "material": 0,
          "mode": 4
        }
      ]
    },
    {
      "name": "Object_1",
      "primitives": [
        {
          "attributes": {
            "NORMAL": 5,
            "POSITION": 4,
            "TEXCOORD_0": 6
          },
          "indices": 7,
          "material": 2,
          "mode": 4
        }
      ]
    },
    {
      "name": "Object_2",
      "primitives": [
        {
          "attributes": {
            "NORMAL": 9,
            "POSITION": 8,
            "TEXCOORD_0": 10
          },
          "indices": 11,
          "material": 3,
          "mode": 4
        }
      ]
    },
    {
      "name": "Object_3",
      "primitives": [
        {
          "attributes": {
            "NORMAL": 13,
            "POSITION": 12,
            "TEXCOORD_0": 14
          },
          "indices": 15,
          "material": 1,
          "mode": 4
        }
      ]
    },
    {
      "name": "Object_4",
      "primitives": [
        {
          "attributes": {
            "NORMAL": 17,
            "POSITION": 16,
            "TEXCOORD_0": 18
          },
          "indices": 19,
          "material": 7,
          "mode": 4
        }
      ]
    },
    {
      "name": "Object_5",
      "primitives": [
        {
          "attributes": {
            "NORMAL": 21,
            "POSITION": 20,
            "TEXCOORD_0": 22
          },
          "indices": 23,
          "material": 8,
          "mode": 4
        }
      ]
    },
    {
      "name": "Object_6",
      "primitives": [
        {
          "attributes": {
            "NORMAL": 25,
            "POSITION": 24,
            "TEXCOORD_0": 26
          },
          "indices": 27,
          "material": 9,
          "mode": 4
        }
      ]
    },
    {
      "name": "Object_7",
      "primitives": [
        {
          "attributes": {
            "NORMAL": 29,
            "POSITION": 28,
            "TEXCOORD_0": 30
          },
          "indices": 31,
          "material": 4,
          "mode": 4
        }
      ]
    },
    {
      "name": "Object_8",
      "primitives": [
        {
          "attributes": {
            "NORMAL": 33,
            "POSITION": 32,
            "TEXCOORD_0": 34
          },
          "indices": 35,
          "material": 5,
          "mode": 4
        }
      ]
    },
    {
      "name": "Object_9",
      "primitives": [
        {
          "attributes": {
            "NORMAL": 37,
            "POSITION": 36,
            "TEXCOORD_0": 38
          },
          "indices": 39,
          "material": 6,
          "mode": 4
        }
      ]
    }
  ],
  "nodes": [
    {
      "children": [
        1
      ],
      "matrix": [
        1.0,
        0.0,
        0.0,
        0.0,
        0.0,
        2.220446049250313e-16,
        -1.0,
        0.0,
        0.0,
        1.0,
        2.220446049250313e-16,
        0.0,
        0.0,
        0.0,
        0.0,
        1.0
      ],
      "name": "Sketchfab_model"
    },
    {
      "children": [
        2,
        3,
        4,
        5,
        6,
        7,
        8,
        9,
        10,
        11
      ],
      "name": "Peachs Castle 1F.obj.cleaner.materialmerger.gles"
    },
    {
      "mesh": 0,
      "name": "Object_2"
    },
    {
      "mesh": 1,
      "name": "Object_3"
    },
    {
      "mesh": 2,
      "name": "Object_4"
    },
    {
      "mesh": 3,
      "name": "Object_5"
    },
    {
      "mesh": 4,
      "name": "Object_6"
    },
    {
      "mesh": 5,
      "name": "Object_7"
    },
    {
      "mesh": 6,
      "name": "Object_8"
    },
    {
      "mesh": 7,
      "name": "Object_9"
    },
    {
      "mesh": 8,
      "name": "Object_10"
    },
    {
      "mesh": 9,
      "name": "Object_11"
    }
  ],
  "samplers": [
    {
      "magFilter": 9729,
      "minFilter": 9987,
      "wrapS": 10497,
      "wrapT": 10497
    }
  ],
  "scene": 0,
  "scenes": [
    {
      "name": "Sketchfab_Scene",
      "nodes": [
        0
      ]
    }
  ],
  "textures": [
    {
      "sampler": 0,
      "source": 0
    },
    {
      "sampler": 0,
      "source": 1
    },
    {
      "sampler": 0,
      "source": 2
    },
    {
      "sampler": 0,
      "source": 3
    },
    {
      "sampler": 0,
      "source": 4
    },
    {
      "sampler": 0,
      "source": 5
    },
    {
      "sampler": 0,
      "source": 6
    },
    {
      "sampler": 0,
      "source": 7
    },
    {
      "sampler": 0,
      "source": 8
    }
  ]
}
